# xmcd
#
# Track frame offsets:
#	150
#	15419
#	33692
#	50010
#	76921
#	92684
#	108504
#	140082
#	155937
#	180054
#	198534
#	219509
#	243673
#	262755
#
# Disc length: 3622 seconds
#
# Revision: 1
# Processed by: cddbd v1.5.2PL0 Copyright (c) Steve Scherf et al.
# Submitted via: EasyCDDAExtractor 7.0.5.1
#
DISCID=be0e240e
DTITLE=Alan Mikusek - Allan Mikusek - Oczko live 2005 part II
DYEAR=2005
DGENRE=Country
TTITLE0=Hviezda na tricku - Oczko life 13.05.2005 
TTITLE1=Oczko life 13.05.2005 
TTITLE2=S diablom v dusi - Oczko life 13.05.2005 
TTITLE3=Pada deszcz - Oczko life 13.05.2005 
TTITLE4=Oczko life 13.05.2005 
TTITLE5=Posledni Cowboy - Oczko life 13.05.2005 
TTITLE6=Knockin' On Heavens Door - Oczko life 13.05.2005 
TTITLE7=Country Roads - Oczko life 13.05.2005 
TTITLE8=Allright - Oczko life 13.05.2005 
TTITLE9=When You Say Nothing At All  - Oczko life 13.05.2005 
TTITLE10=Tam u nebeskych bran  (echo) - Oczko life 13.05.2005
TTITLE11=Oczko life 13.05.2005 
TTITLE12=Stale hram - Oczko life 13.05.2005 
TTITLE13=(bonus) - Oczko life 13.05.2005 
EXTD=
EXTT0=
EXTT1=
EXTT2=
EXTT3=
EXTT4=
EXTT5=
EXTT6=
EXTT7=
EXTT8=
EXTT9=
EXTT10=
EXTT11=
EXTT12=
EXTT13=
PLAYORDER=
